# xmcd
#
# Track frame offsets: 
#        150
#        10961
#        22358
#        35572
#        52109
#        66084
#        78473
#        95751
#        111096
#        127811
#        142895
#        159161
#        179936
#        199324
#        213509
#        227833
#        251576
#        266044
#
# Disc length: 3796 seconds
#
# Revision: 0
# Processed by: cddbd v1.5.2PL0 Copyright (c) Steve Scherf et al.
# Submitted via: ExactAudioCopy v0.99pb5
#
DISCID=0d0ed212
DTITLE=Drew's Famous - Luau Party Music
DYEAR=2007
DGENRE=Luau
TTITLE0=Surfin' USA
TTITLE1=Blue Hawaii
TTITLE2=One Love
TTITLE3=Kokomo
TTITLE4=I Can See Clearly Now
TTITLE5=(Love is Like a) Heat Wave
TTITLE6=The Heat is On
TTITLE7=The Tide is High
TTITLE8=Walking on Sunshine
TTITLE9=Soak up the Sun
TTITLE10=Cruel Summer
TTITLE11=Island Magic
TTITLE12=Coconut Smoothie
TTITLE13=Cool Breeze
TTITLE14=Paradise Melody
TTITLE15=Seaside Paradise
TTITLE16=Calypso Cutie
TTITLE17=Limbo Lower
EXTD=
EXTT0=
EXTT1=
EXTT2=
EXTT3=
EXTT4=
EXTT5=
EXTT6=
EXTT7=
EXTT8=
EXTT9=
EXTT10=
EXTT11=
EXTT12=
EXTT13=
EXTT14=
EXTT15=
EXTT16=
EXTT17=
PLAYORDER=
